<?xml version="1.0" standalone="no"?>
<!DOCTYPE svg PUBLIC "-//W3C//DTD SVG 20010904//EN"
 "http://www.w3.org/TR/2001/REC-SVG-20010904/DTD/svg10.dtd">
<svg version="1.0" xmlns="http://www.w3.org/2000/svg"
 width="376.000000pt" height="376.000000pt" viewBox="0 0 376.000000 376.000000"
 preserveAspectRatio="xMidYMid meet">

<g transform="translate(0.000000,376.000000) scale(0.100000,-0.100000)"
fill="#000000" stroke="none">
<path d="M220 3687 c-62 -21 -98 -49 -124 -98 l-26 -47 0 -1658 c0 -1583 1
-1661 19 -1699 23 -51 80 -101 130 -115 27 -7 553 -9 1688 -8 l1650 3 41 28
c22 16 53 47 69 69 l28 41 3 1656 c2 1145 0 1667 -8 1693 -15 52 -90 123 -145
137 -64 16 -3276 14 -3325 -2z m1640 -753 c24 -42 21 -60 -12 -74 -13 -5 -54
-30 -93 -55 -38 -25 -77 -48 -85 -52 -12 -5 -541 -321 -547 -327 -1 -1 -7 -83
-13 -182 -11 -177 -11 -181 12 -250 18 -54 24 -90 23 -164 l0 -95 -104 -3
-104 -3 5 108 c4 86 10 120 30 168 22 52 26 81 32 215 11 252 13 267 50 289
17 10 94 56 171 103 77 46 230 138 340 203 110 65 211 127 224 137 34 26 46
23 71 -18z m-268 -1446 c3 -417 3 -424 26 -473 50 -108 133 -157 267 -159 187
-1 292 88 315 267 5 39 10 233 10 430 l0 357 210 0 210 0 0 -415 c0 -481 -4
-516 -76 -663 -64 -131 -157 -224 -286 -286 -150 -71 -198 -81 -388 -81 -160
1 -168 2 -260 33 -125 44 -191 83 -265 157 -102 103 -163 229 -185 385 -5 36
-10 246 -10 468 l0 402 215 0 214 0 3 -422z"/>
</g>
</svg>
